<svg id="Laag_1" data-name="Laag 1" xmlns="http://www.w3.org/2000/svg" viewBox="0 0 714.58 130.12"><defs><style>.cls-1{fill:#fff;}</style></defs><path class="cls-1" d="M538.78,84.16v30.26H520.51c-1.23-8.15,4.44-43.09-7.7-43.87h-8.2v40.84l-18.27,0V1.11C506,2.75,539.42-7.1,538.58,23.36c-.45,12.16,3.3,34.53-10.41,38.9C535.69,64.33,538.78,75.12,538.78,84.16ZM513.5,17.37h-8.89V53.76c6.07-.14,16.36,1.78,15.73-7.34V24.22C520.34,19.6,518.11,17.37,513.5,17.37Z"/><path class="cls-1" d="M573.93,70.77V54.08h27.38v53.8c.33,20.85-14.56,23.26-32,22.24-14.9,0-22.26-7.36-22.26-22.24V22.25C547.06,7.35,554.42,0,569.32,0c32-1.9,32.39,10.31,31.65,37.93l-18,2.31V23.11c.32-6.87-5.22-7.37-10.61-7-4.78,0-7,2.23-7,7V107c-.29,7.14,5.55,7.31,11.12,7,4.79,0,7-2.23,7-7V70.77Z"/><path class="cls-1" d="M698.16.26h16.42V101.88H695.37l-19.3-62.59.19,62.59H659.81V.26h20.77l17.74,66.61Z"/><path class="cls-1" d="M417.24,63.77c14,3.72,9.62,26.42,10.28,38.3.91,30.28-32.39,20.75-51.85,22.24V.8c19.55,1.53,53.08-8.14,52.18,22.25V46.48C427.85,56.23,424.44,61.37,417.24,63.77Zm-7.87,37.59V78.49c.52-9.41-9.3-7.36-15.57-7.54v37.27C399.5,107.93,410,110.32,409.37,101.36Zm-15.57-47c6.21-.18,16.55,1.89,15.92-7.54V23.74c.63-9-10.23-6.52-15.92-6.84Z"/><path class="cls-1" d="M41.57,64.27c14,3.72,9.62,26.42,10.28,38.3.91,30.28-32.38,20.75-51.85,22.24V1.3C19.55,2.83,53.09-6.84,52.18,23.55V47C52.18,56.73,48.77,61.87,41.57,64.27Zm-7.86,37.59V79c.51-9.41-9.3-7.36-15.58-7.54v37.27C23.83,108.43,34.32,110.82,33.71,101.86Zm-15.58-47c6.21-.18,16.55,1.89,15.92-7.54V24.24c.63-9-10.23-6.52-15.92-6.84Z"/><path class="cls-1" d="M62.35,105.8V1h43.07V17.6H80V54h20.23V70.64H80V89.21H105.1V105.8Z"/><path class="cls-1" d="M294,105.8V1h43.08V17.6H311.66V54.06h20.23V70.68H311.66V89.21h25.1V105.8Z"/><path class="cls-1" d="M435.35,105.8V1h43.07V17.6H453V54.08h20.23V70.7H453V89.21H478.1V105.8Z"/><path class="cls-1" d="M116.12,114.28V1.21h43.09V17.82H133.78V54.11H154V70.72H133.78v27h25.1v16.59Z"/><path class="cls-1" d="M225.18.66,205.33,61.59l16.77,60H202.93L187.72,62.63v66.18H169.38V.66h18.34v58.7L205.5.66Z"/><path class="cls-1" d="M282.47,85c.47,26.21,2,41.85-30.28,39.76-26,.63-22-22.79-22.09-41.2l17.81-2.28V102c-.34,5.82,4.28,7.29,9.4,6.83,4.78,0,7-2.21,7-6.83V87.58c0-5-1.71-7.17-5.13-9.74C229.28,55.91,229.35,61,230.1,23.11c-.4-19.42,13.07-23.43,30-22.24,27.48-.77,21.54,26.22,22.08,44.92l-18,2.31V23.63c.29-5.75-4.06-7.29-9.07-6.85-4.61,0-6.85,2.22-6.85,6.85V41c0,5,1.73,7.36,5.14,9.77l18.49,13.52C279.91,70.13,282.47,75.25,282.47,85Z"/><path class="cls-1" d="M610.79,113.78V.71h43.09V17.32H628.45V54h20.24V70.62H628.45V97.19h25.1v16.59Z"/></svg>